# xmcd
#
# Track frame offsets:
#	150
#	21404
#	35893
#	50710
#	71029
#	91624
#	107789
#	123741
#	134225
#
# Disc length: 1996 seconds
# Revision: 0
# Processed by: cddbd v1.5.2PL0 Copyright (c) Steve Scherf et al.
# Submitted via: dBpowerAMP V12.0
#
DISCID=8d07ca09
DTITLE=Elisabeth Botn - Jeg Løfter Mine Øyne
DYEAR=2002
DGENRE=Gospel
TTITLE0=Her Er Det Fest Og Glede
TTITLE1=Hevenu Shalom, Jeg løfter Mine Øyne
TTITLE2=Soon And Very Soon
TTITLE3=Vi Vil Gi Deg Ære
TTITLE4=Amazing Grace
TTITLE5=Majestet
TTITLE6=Takk For Golgata, Vi Er Her
TTITLE7=Jesus Den Eneste
TTITLE8=På Grunn Av Jesu Blod, Halleluja
EXTD=
EXTT0=
EXTT1=
EXTT2=
EXTT3=
EXTT4=
EXTT5=
EXTT6=
EXTT7=
EXTT8=
PLAYORDER=
